<?xml version="1.0" encoding="UTF-8" standalone="no"?>
<!-- Created with Inkscape (http://www.inkscape.org/) -->

<svg
   xmlns:dc="http://purl.org/dc/elements/1.1/"
   xmlns:cc="http://creativecommons.org/ns#"
   xmlns:rdf="http://www.w3.org/1999/02/22-rdf-syntax-ns#"
   xmlns:svg="http://www.w3.org/2000/svg"
   xmlns="http://www.w3.org/2000/svg"
   xmlns:sodipodi="http://sodipodi.sourceforge.net/DTD/sodipodi-0.dtd"
   xmlns:inkscape="http://www.inkscape.org/namespaces/inkscape"
   id="svg4136"
   version="1.1"
   inkscape:version="0.91 r13725"
   xml:space="preserve"
   width="130.33365"
   height="72.4655"
   viewBox="0 0 130.33365 72.4655"
   sodipodi:docname="logo.svg"><metadata
     id="metadata4142"><rdf:RDF><cc:Work
         rdf:about=""><dc:format>image/svg+xml</dc:format><dc:type
           rdf:resource="http://purl.org/dc/dcmitype/StillImage" /><dc:title></dc:title></cc:Work></rdf:RDF></metadata><defs
     id="defs4140" /><sodipodi:namedview
     pagecolor="#ffffff"
     bordercolor="#666666"
     borderopacity="1"
     objecttolerance="10"
     gridtolerance="10"
     guidetolerance="10"
     inkscape:pageopacity="0"
     inkscape:pageshadow="2"
     inkscape:window-width="1920"
     inkscape:window-height="1137"
     id="namedview4138"
     showgrid="false"
     inkscape:zoom="2.3913066"
     inkscape:cx="25.85016"
     inkscape:cy="10.204059"
     inkscape:window-x="1912"
     inkscape:window-y="-8"
     inkscape:window-maximized="1"
     inkscape:current-layer="g4154"
     showguides="true"
     fit-margin-top="0"
     fit-margin-left="0"
     fit-margin-right="0"
     fit-margin-bottom="0" /><g
     id="g4144"
     inkscape:groupmode="layer"
     inkscape:label="LOGO3"
     transform="matrix(1.25,0,0,-1.25,-140.3115,779.92942)"><g
       id="g4154"
       transform="translate(209.0962,613.5474)"><path
         d="M 0,0 C -1.812,-0.167 -2.803,2.35 -2.803,2.35 -2.355,1.981 1.813,0.168 0,0 m -9.1410972,-20.328114 c -3.3591548,7.205812 6.7938747,10.6975949 8.8140972,9.549114 1.432,-0.851 2.609,-2.305 2.609,-2.305 0,0 1.517,3.496 4.329,4.935 3.218,1.647 -4.239,7.134 -3.722,8.252 1.01,2.183 -1.858,4.737 -4.76,7.09 -5.952,4.825 -13.988,2.767 -13.988,2.767 0,0 4.801,-0.235 6.355,-3.307 -6.299,1.145 -13.227,1.301 -19.19,-1.042 2.141,0.035 4.747,-0.043 7.077,-1.483 -4.535,0.998 -8.378,0.068 -11.819,-1.117 1.683,0.222 3.478,-0.231 4.33,-0.821 -5.797,0.098 -9.598,-3.418 -9.598,-3.418 -0.834,-0.746 -1.905,-1.654 -3.466,-2.804 -8.426,-6.211 -13.854323,-4.5408817 -23.930796,-6.298118 C -93.535537,-20.330793 -98.39251,3.9169402 -73.894223,-0.72880169 -101.23065,4.8433867 -94.603463,-22.130086 -69.379392,-13.959537 -77.719424,-17.433623 -79.792,-29.04 -90.547,-33.384 c -2.629,-1.061 -3.721,-9.949 -6.3,-13.985 3.487,-0.055 9.151,-1.039 8.439,1.822 -1.881,7.572 27.171,17.785 32.729,19.444 10.992191,2.511311 18.946029,3.175073 24.128184,-4.911289 -6.476993,14.684702 -25.24137,13.248448 -28.528178,12.273526 15.218056,2.795363 28.493245,-3.796797 31.569535,-15.8205 1.168849,-3.854728 6.979918,-7.154778 4.896177,-12.796701 0,0 5.036903,0.19522 7.831124,-0.04097 2.887566,-0.132537 -7.378989,17.174945 -2.36238,17.659548 1.841103,0.20029 5.665014,-3.963301 9.0413837,-7.161831 3.3117887,-3.13735 7.0809518,-6.934896 7.4757414,-9.94887 3.1070903,-0.294363 10.6661452,-1.122306 8.7136472,0.924709 -10.2566537,10.753153 -12.8681763,18.391452 -16.2273315,25.597264 z"
         style="fill:#000000;fill-opacity:1;fill-rule:nonzero;stroke:none"
         id="path4156"
         inkscape:connector-curvature="0"
         sodipodi:nodetypes="ccczccccccccccccccccccccccccccscsz" /><path
         style="fill:#000000;fill-opacity:1;fill-rule:evenodd;stroke:none;stroke-width:0.80000001px;stroke-linecap:butt;stroke-linejoin:miter;stroke-opacity:1"
         d="m -66.466238,-1.128016 c -4.322512,3.1275997 -5.027741,0.18694901 -8.136277,0.60370121 2.901309,-4.47281961 5.067665,0.0726378 8.136277,-0.60370121 z"
         id="rect4151"
         inkscape:connector-curvature="0"
         sodipodi:nodetypes="ccc" /></g><g
       id="g4158"
       transform="translate(165.0664,589.1582)"
       style="fill:#000000;fill-opacity:1"><path
         d="M 1.0872717,-0.585454 C -7.1266325,-0.50331335 -18.597799,-4.3064168 -22.085,-8.858 c 0,0 7.038,-10.95 4.49,-13.951 4.004,-0.033 9.343,-0.853 8.372,1.412 -0.97,2.266 -4.068,9.587 -0.728,14.157 2.306,3.156 6.0222718,4.268546 11.0382717,6.654546"
         style="fill:#000000;fill-opacity:1;fill-rule:nonzero;stroke:none"
         id="path4160"
         inkscape:connector-curvature="0"
         sodipodi:nodetypes="cccccc" /></g></g></svg>